<svg xmlns="http://www.w3.org/2000/svg" xmlns:xlink="http://www.w3.org/1999/xlink" width="1400" zoomAndPan="magnify" viewBox="0 0 1050 1049.999947" height="1400" preserveAspectRatio="xMidYMid meet" version="1.0"><defs><g/><clipPath id="id1"><path d="M 260.417969 262.421875 L 789.679688 262.421875 L 789.679688 787.675781 L 260.417969 787.675781 Z M 260.417969 262.421875 " clip-rule="nonzero"/></clipPath><clipPath id="id2"><path d="M 152 152 L 898 152 L 898 898 L 152 898 Z M 152 152 " clip-rule="nonzero"/></clipPath><clipPath id="id3"><path d="M 152.242188 526.414062 L 526.488281 152.171875 L 897.898438 523.582031 L 523.65625 897.824219 Z M 152.242188 526.414062 " clip-rule="nonzero"/></clipPath><clipPath id="id4"><path d="M 348.75 522 L 701.25 522 L 701.25 528 L 348.75 528 Z M 348.75 522 " clip-rule="nonzero"/></clipPath></defs><g clip-path="url(#id1)"><path fill="#ffffff" d="M 260.417969 262.421875 L 260.417969 787.675781 L 789.679688 787.675781 L 789.679688 262.421875 L 260.417969 262.421875 M 782.429688 780.429688 L 267.515625 780.429688 L 267.515625 269.519531 L 782.429688 269.519531 L 782.429688 780.429688 " fill-opacity="1" fill-rule="nonzero"/></g><g clip-path="url(#id2)"><g clip-path="url(#id3)"><path fill="#ffffff" d="M 152.242188 526.414062 L 523.65625 897.824219 L 897.898438 523.582031 L 526.488281 152.171875 L 152.242188 526.414062 M 887.648438 523.582031 L 523.546875 887.679688 L 162.28125 526.414062 L 526.378906 162.3125 L 887.648438 523.582031 " fill-opacity="1" fill-rule="nonzero"/></g></g><g fill="#ffffff" fill-opacity="1"><g transform="translate(361.568478, 617.649931)"><g><path d="M 12.265625 -30.546875 L 0.21875 -30.546875 L 0.21875 -37.640625 L 33.015625 -37.640625 L 33.015625 -30.546875 L 20.96875 -30.546875 L 20.96875 0 L 12.265625 0 Z M 12.265625 -30.546875 "/></g></g></g><g fill="#ffffff" fill-opacity="1"><g transform="translate(410.392065, 617.649931)"><g><path d="M 38.984375 -37.640625 L 38.984375 0 L 30.28125 0 L 30.28125 -15.4375 L 13.171875 -15.4375 L 13.171875 0 L 4.46875 0 L 4.46875 -37.640625 L 13.171875 -37.640625 L 13.171875 -22.796875 L 30.28125 -22.796875 L 30.28125 -37.640625 Z M 38.984375 -37.640625 "/></g></g></g><g fill="#ffffff" fill-opacity="1"><g transform="translate(469.431104, 617.649931)"><g><path d="M 22.703125 0.640625 C 18.785156 0.640625 15.257812 -0.195312 12.125 -1.875 C 8.988281 -3.5625 6.53125 -5.882812 4.75 -8.84375 C 2.976562 -11.800781 2.09375 -15.128906 2.09375 -18.828125 C 2.09375 -22.515625 2.976562 -25.835938 4.75 -28.796875 C 6.53125 -31.753906 8.988281 -34.078125 12.125 -35.765625 C 15.257812 -37.453125 18.785156 -38.296875 22.703125 -38.296875 C 26.609375 -38.296875 30.117188 -37.453125 33.234375 -35.765625 C 36.359375 -34.078125 38.816406 -31.753906 40.609375 -28.796875 C 42.398438 -25.835938 43.296875 -22.515625 43.296875 -18.828125 C 43.296875 -15.128906 42.398438 -11.800781 40.609375 -8.84375 C 38.816406 -5.882812 36.359375 -3.5625 33.234375 -1.875 C 30.117188 -0.195312 26.609375 0.640625 22.703125 0.640625 Z M 22.703125 -6.78125 C 24.921875 -6.78125 26.925781 -7.289062 28.71875 -8.3125 C 30.507812 -9.332031 31.914062 -10.753906 32.9375 -12.578125 C 33.957031 -14.410156 34.46875 -16.492188 34.46875 -18.828125 C 34.46875 -21.148438 33.957031 -23.226562 32.9375 -25.0625 C 31.914062 -26.894531 30.507812 -28.320312 28.71875 -29.34375 C 26.925781 -30.363281 24.921875 -30.875 22.703125 -30.875 C 20.472656 -30.875 18.460938 -30.363281 16.671875 -29.34375 C 14.878906 -28.320312 13.472656 -26.894531 12.453125 -25.0625 C 11.429688 -23.226562 10.921875 -21.148438 10.921875 -18.828125 C 10.921875 -16.492188 11.429688 -14.410156 12.453125 -12.578125 C 13.472656 -10.753906 14.878906 -9.332031 16.671875 -8.3125 C 18.460938 -7.289062 20.472656 -6.78125 22.703125 -6.78125 Z M 22.703125 -6.78125 "/></g></g></g><g fill="#ffffff" fill-opacity="1"><g transform="translate(530.405712, 617.649931)"><g><path d="M 38.71875 0 L 38.671875 -22.59375 L 27.59375 -3.984375 L 23.65625 -3.984375 L 12.640625 -22.109375 L 12.640625 0 L 4.46875 0 L 4.46875 -37.640625 L 11.671875 -37.640625 L 25.765625 -14.25 L 39.640625 -37.640625 L 46.796875 -37.640625 L 46.890625 0 Z M 38.71875 0 "/></g></g></g><g fill="#ffffff" fill-opacity="1"><g transform="translate(597.348287, 617.649931)"><g><path d="M 29.25 -8.0625 L 11.78125 -8.0625 L 8.4375 0 L -0.484375 0 L 16.296875 -37.640625 L 24.90625 -37.640625 L 41.734375 0 L 32.59375 0 Z M 26.515625 -14.6875 L 20.546875 -29.09375 L 14.578125 -14.6875 Z M 26.515625 -14.6875 "/></g></g></g><g fill="#ffffff" fill-opacity="1"><g transform="translate(654.129173, 617.649931)"><g><path d="M 16.828125 0.640625 C 13.859375 0.640625 10.984375 0.238281 8.203125 -0.5625 C 5.421875 -1.375 3.1875 -2.421875 1.5 -3.703125 L 4.46875 -10.265625 C 6.082031 -9.085938 8 -8.140625 10.21875 -7.421875 C 12.4375 -6.703125 14.660156 -6.34375 16.890625 -6.34375 C 19.359375 -6.34375 21.179688 -6.707031 22.359375 -7.4375 C 23.546875 -8.175781 24.140625 -9.15625 24.140625 -10.375 C 24.140625 -11.269531 23.789062 -12.015625 23.09375 -12.609375 C 22.394531 -13.203125 21.5 -13.675781 20.40625 -14.03125 C 19.3125 -14.394531 17.832031 -14.789062 15.96875 -15.21875 C 13.101562 -15.894531 10.753906 -16.570312 8.921875 -17.25 C 7.097656 -17.9375 5.53125 -19.03125 4.21875 -20.53125 C 2.914062 -22.039062 2.265625 -24.050781 2.265625 -26.5625 C 2.265625 -28.75 2.851562 -30.726562 4.03125 -32.5 C 5.21875 -34.28125 7.003906 -35.691406 9.390625 -36.734375 C 11.773438 -37.773438 14.6875 -38.296875 18.125 -38.296875 C 20.53125 -38.296875 22.878906 -38.007812 25.171875 -37.4375 C 27.460938 -36.863281 29.46875 -36.035156 31.1875 -34.953125 L 28.5 -28.34375 C 25.019531 -30.3125 21.546875 -31.296875 18.078125 -31.296875 C 15.628906 -31.296875 13.820312 -30.898438 12.65625 -30.109375 C 11.5 -29.328125 10.921875 -28.289062 10.921875 -27 C 10.921875 -25.707031 11.59375 -24.75 12.9375 -24.125 C 14.28125 -23.5 16.332031 -22.878906 19.09375 -22.265625 C 21.957031 -21.585938 24.300781 -20.90625 26.125 -20.21875 C 27.957031 -19.539062 29.53125 -18.46875 30.84375 -17 C 32.15625 -15.53125 32.8125 -13.539062 32.8125 -11.03125 C 32.8125 -8.875 32.207031 -6.90625 31 -5.125 C 29.800781 -3.351562 28 -1.945312 25.59375 -0.90625 C 23.195312 0.125 20.273438 0.640625 16.828125 0.640625 Z M 16.828125 0.640625 "/></g></g></g><g clip-path="url(#id4)"><path fill="#ffffff" d="M 348.75 522 L 701.25 522 L 701.25 528 L 348.75 528 Z M 348.75 522 " fill-opacity="1" fill-rule="nonzero"/></g></svg>